<svg width="125" height="35" viewBox="0 0 125 35" fill="none" xmlns="http://www.w3.org/2000/svg">
<path d="M30.1929 26.6846L22.5943 19.3488C20.8407 21.9518 17.8013 23.7266 15.2295 23.6083C12.19 23.2533 11.021 20.2953 12.5407 16.8641C14.0605 13.5511 17.6844 10.9481 20.7238 11.1847C22.7112 11.4213 23.8802 12.7229 24.114 14.4977L35.4534 7.39845C35.2196 6.68853 34.752 6.09693 34.2844 5.38701C30.1929 -1.59388 18.7365 -1.83052 9.73512 4.91373C0.733708 11.658 -2.65643 23.0167 2.25343 29.9976C7.16329 36.8602 19.2041 36.6235 27.2703 29.5243C28.2835 28.5777 29.2576 27.6312 30.1929 26.6846Z" fill="white"/>
<path d="M93.5534 22.78L100.451 0.772461H88.5266L78.0055 34.0204H98.8139L102.438 22.78H93.5534Z" fill="white"/>
<path d="M81.9806 9.17319L84.5524 0.772461H72.6285L69.9398 9.17319H81.9806Z" fill="white"/>
<path d="M69.355 11.1846L62.1071 34.0204H74.0311L81.2789 11.1846H69.355Z" fill="white"/>
<path d="M122.428 9.17319L125 0.772461H113.076L110.387 9.17319H122.428Z" fill="white"/>
<path d="M109.803 11.1846L102.555 34.0204H114.479L121.727 11.1846H109.803Z" fill="white"/>
<path d="M56.9634 0.772461L53.6902 11.1846H47.3775L50.6508 0.772461H38.6099L28.0888 34.0204H40.1296L43.8705 22.1884H50.1832L46.4423 34.0204H58.3663L68.8874 0.772461H56.9634Z" fill="white"/>
</svg>
